# xmcd
#
# Track frame offsets:
# 150
# 18215
# 33396
# 52241
# 70646
# 85345
# 101764
# 117793
# 150877
# 172547
# 186155
# 199820
# 214333
# 231234
# 244513
#
# Disc length: 3550 seconds
#
#
# Revision: 0
# Processed by: cddbd v1.5.2PL0 Copyright (c) Steve Scherf et al.
# Submitted via: FreeRIP 2.951 
#
DISCID=bc0ddc0f
DTITLE=Pure Stuff Bluesband - Low Down
DYEAR=1999
DGENRE=Blues
TTITLE0=Sugar Sweet
TTITLE1=Trouble No More
TTITLE2=Lucky With My Baby
TTITLE3=Hot Butter
TTITLE4=Garbage Man
TTITLE5=How Many Nights
TTITLE6=It Aint Right
TTITLE7=My Little Machine
TTITLE8=Lucky Dog
TTITLE9=Im Gonna Leave
TTITLE10=Big Daddy's Blues
TTITLE11=My Babe
TTITLE12=Low Down
TTITLE13=She Don't Care
TTITLE14=Walkin´ Blues
EXTD=
EXTT0=
EXTT1=
EXTT2=
EXTT3=
EXTT4=
EXTT5=
EXTT6=
EXTT7=
EXTT8=
EXTT9=
EXTT10=
EXTT11=
EXTT12=
EXTT13=
EXTT14=
PLAYORDER=
